<svg width="25" height="24" viewBox="0 0 25 24" fill="none" xmlns="http://www.w3.org/2000/svg">
<path fill-rule="evenodd" clip-rule="evenodd" d="M2.59717 9C2.59717 5.14585 5.74302 2 9.59717 2C13.4513 2 16.5972 5.14585 16.5972 9C16.5972 10.748 15.9452 12.345 14.8784 13.5742L15.3042 14H16.5972L22.5972 20L20.5972 22L14.5972 16V14.707L14.1714 14.2812C12.9422 15.348 11.3452 16 9.59717 16C5.74302 16 2.59717 12.8541 2.59717 9ZM14.5972 9C14.5972 6.22673 12.3704 4 9.59717 4C6.8239 4 4.59717 6.22673 4.59717 9C4.59717 11.7733 6.8239 14 9.59717 14C12.3704 14 14.5972 11.7733 14.5972 9Z" fill="black"/>
</svg>
